<svg xmlns="http://www.w3.org/2000/svg" viewBox="0 0 768.34 684.38"><defs><style>.cls-1{fill:#f4f4f4;}</style></defs><title>Asset 1</title><g id="Layer_2" data-name="Layer 2"><g id="Layer_1-2" data-name="Layer 1"><path class="cls-1" d="M168,492.34l151-151A58.21,58.21,0,0,0,319,259l-151-151-48,48L244.88,281a27.16,27.16,0,0,1,0,38.41L120,444.31Z"/><path class="cls-1" d="M96,420.29l48-48L91.16,319.41a27.16,27.16,0,0,1,0-38.41L144,228.16l-48-48L17,259a58.21,58.21,0,0,0,0,82.32Z"/><rect class="cls-1" x="134.06" y="266.24" width="67.93" height="67.93" rx="17.7" ry="17.7" transform="translate(-163.07 206.74) rotate(-45)"/><path class="cls-1" d="M343,667.33l-42.9-42.9,48-48L365,593.22a27.16,27.16,0,0,0,38.41,0L420.2,576.4l48,48-42.9,42.9A58.21,58.21,0,0,1,343,667.33Z"/><path class="cls-1" d="M276.1,600.42l48-48-36-36L365,439.5a27.16,27.16,0,0,1,38.41,0L461,497.15a27.16,27.16,0,0,1,0,38.41l-16.82,16.82,48,48,42.9-42.9a58.21,58.21,0,0,0,0-82.32L425.33,365.39a58.21,58.21,0,0,0-82.32,0l-151,151Z"/><rect class="cls-1" x="350.21" y="482.39" width="67.93" height="67.93" rx="17.7" ry="17.7" transform="translate(-252.6 422.89) rotate(-45)"/><path class="cls-1" d="M600.32,108.07l-151,151a58.21,58.21,0,0,0,0,82.32l151,151,48-48L523.46,319.41a27.16,27.16,0,0,1,0-38.41L648.35,156.11Z"/><path class="cls-1" d="M672.37,180.13l-48,48L677.18,281a27.16,27.16,0,0,1,0,38.41l-52.84,52.84,48,48,78.92-78.92a58.21,58.21,0,0,0,0-82.32Z"/><rect class="cls-1" x="566.36" y="266.24" width="67.93" height="67.93" rx="17.7" ry="17.7" transform="translate(-36.45 512.42) rotate(-45)"/><path class="cls-1" d="M492.25,0l-48,48,36,36-76.86,76.86a27.16,27.16,0,0,1-38.41,0l-57.66-57.66a27.16,27.16,0,0,1,0-38.41L324.13,48l-48-48L233.2,42.9a58.21,58.21,0,0,0,0,82.32L343,235a58.21,58.21,0,0,0,82.32,0l151-151Z"/><rect class="cls-1" x="350.21" y="50.09" width="67.93" height="67.93" rx="17.7" ry="17.7" transform="translate(53.08 296.27) rotate(-45)"/></g></g></svg>